SplineFontDB: 3.2
FontName: CNOCSans-Semibold
FullName: CNOC Sans
FamilyName: CNOCSans
Weight: Semibold
Copyright: Copyright (c) 2023, OrangeCloud & Kevinkesager
UComments: "2023-9-30: Created with FontForge (http://fontforge.org)"
Version: 000.002beta
ItalicAngle: 0
UnderlinePosition: -100
UnderlineWidth: 50
Ascent: 800
Descent: 200
InvalidEm: 0
LayerCount: 3
Layer: 0 0 "Back" 1
Layer: 1 0 "Fore" 0
Layer: 2 0 "Back 2" 1
XUID: [1021 259 -292963172 10689]
OS2Version: 0
OS2_WeightWidthSlopeOnly: 0
OS2_UseTypoMetrics: 1
CreationTime: 1696059784
ModificationTime: 1696589761
OS2TypoAscent: 0
OS2TypoAOffset: 1
OS2TypoDescent: 0
OS2TypoDOffset: 1
OS2TypoLinegap: 0
OS2WinAscent: 0
OS2WinAOffset: 1
OS2WinDescent: 0
OS2WinDOffset: 1
HheadAscent: 0
HheadAOffset: 1
HheadDescent: 0
HheadDOffset: 1
OS2Vendor: 'PfEd'
MarkAttachClasses: 1
DEI: 91125
Encoding: ISO8859-1
UnicodeInterp: none
NameList: AGL For New Fonts
DisplaySize: -48
AntiAlias: 1
FitToEm: 0
WinInfo: 0 19 14
BeginPrivate: 0
EndPrivate
Grid
-1000 607 m 0
 2000 607 l 1024
  Named: "+XA9RmQAA"
EndSplineSet
TeXData: 1 0 0 346030 173015 115343 634975 1048576 115343 783286 444596 497025 792723 393216 433062 380633 303038 157286 324010 404750 52429 2506097 1059062 262144
BeginChars: 256 59

StartChar: A
Encoding: 65 65 0
Width: 703
Flags: HW
LayerCount: 3
Fore
SplineSet
209.010742188 191.814453125 m 5
 494.576171875 191.814453125 l 5
 566.596679688 4.35546875 l 5
 701 15 l 5
 430 778 l 5
 272.999023438 778 l 5
 2 15 l 5
 143.01953125 4.35546875 l 5
 209.010742188 191.814453125 l 5
348.185546875 612.578125 m 5
 354.37109375 612.579101562 l 5
 465.40234375 308.75390625 l 5
 238.185546875 308.75390625 l 5
 348.185546875 612.578125 l 5
EndSplineSet
EndChar

StartChar: x
Encoding: 120 120 1
Width: 672
Flags: HW
LayerCount: 3
Fore
SplineSet
51.6982421875 607.559570312 m 1
 247.62890625 328.1796875 l 1
 24.6513671875 0 l 1
 188.03125 0 l 1
 347.287109375 214.846679688 l 1
 492.651367188 -11 l 5
 672.651367188 -9 l 5
 450.50390625 322.90625 l 1
 626.495117188 607.559570312 l 25
 458.755859375 607.559570312 l 25
 353.09765625 439.310546875 l 1
 233.651367188 607 l 25
 51.6982421875 607.559570312 l 1
EndSplineSet
EndChar

StartChar: X
Encoding: 88 88 2
Width: 767
Flags: HW
LayerCount: 3
Fore
SplineSet
49.923828125 788.170898438 m 5
 295 414 l 29
 27.9453125 0.166015625 l 5
 213.655273438 0.166015625 l 5
 383 279 l 29
 564.552734375 0.166015625 l 5
 739.001953125 0.166015625 l 5
 470 408 l 29
 716.801757812 787.73046875 l 5
 534.092773438 787.73046875 l 5
 387 544 l 29
 233.178710938 788.170898438 l 5
 49.923828125 788.170898438 l 5
EndSplineSet
EndChar

StartChar: o
Encoding: 111 111 3
Width: 609
Flags: HW
LayerCount: 3
Fore
SplineSet
211.76171875 304.940429688 m 0
 211.76171875 199.885742188 257.010742188 113.782226562 340.208984375 113.782226562 c 0
 427.892578125 113.782226562 467.462890625 200.650390625 467.462890625 305.705078125 c 0
 467.462890625 405.755859375 423.40625 495.155273438 340.208984375 495.155273438 c 0
 257.010742188 495.155273438 211.76171875 409.995117188 211.76171875 304.940429688 c 0
75.8525390625 304.8828125 m 0
 75.8525390625 510.626953125 187.193359375 623.780273438 342.09375 623.780273438 c 0
 496.994140625 623.780273438 605.860351562 502.323242188 605.860351562 306.379882812 c 0
 605.860351562 100.63671875 506.294921875 -14.013671875 342.09375 -14.013671875 c 0
 187.193359375 -14.013671875 75.8525390625 99.1396484375 75.8525390625 304.8828125 c 0
EndSplineSet
EndChar

StartChar: O
Encoding: 79 79 4
Width: 696
Flags: HW
LayerCount: 3
Fore
SplineSet
144.145507812 392.466796875 m 4
 144.145507812 226.54296875 229.961914062 106.943359375 350.9765625 106.943359375 c 4
 478.515625 106.943359375 556.073242188 227.60546875 556.073242188 393.528320312 c 4
 556.073242188 552.501953125 471.991210938 676.680664062 350.9765625 676.680664062 c 4
 229.961914062 676.680664062 144.145507812 568.390625 144.145507812 392.466796875 c 4
0.4677734375 392.818359375 m 4
 0.4677734375 662.424804688 146.369140625 810.701171875 349.349609375 810.701171875 c 4
 552.33203125 810.701171875 694.990234375 651.543945312 694.990234375 394.779296875 c 4
 694.990234375 125.173828125 564.51953125 -25.0634765625 349.349609375 -25.0634765625 c 4
 146.369140625 -25.0634765625 0.4677734375 123.2109375 0.4677734375 392.818359375 c 4
EndSplineSet
EndChar

StartChar: n
Encoding: 110 110 5
Width: 577
Flags: HW
VStem: 70.0201 190<182.1 607> 434.021 196<117.6 454.951> 444.021 184<0 274.4>
LayerCount: 3
Fore
SplineSet
307.01953125 480 m 4xc0
 336.01953125 479 403.241210938 461.711914062 405.01953125 392 c 6xc0
 415.01953125 0 l 5
 570.01953125 2 l 5xa0
 564.01953125 450 l 6
 564.590820312 584.900390625 425.233398438 643.303710938 344.01953125 613 c 4
 277.01953125 588 239.01953125 566 184.01953125 532 c 5
 172.01953125 396 l 5
 210.01953125 404 267.03125 481.37890625 307.01953125 480 c 4xc0
204.01953125 627 m 5
 60.01953125 617 l 5
 60.01953125 0 l 5
 210.01953125 0 l 5
 220.01953125 607 l 6
 204.01953125 627 l 5
EndSplineSet
EndChar

StartChar: v
Encoding: 118 118 6
Width: 620
Flags: HW
LayerCount: 3
Fore
SplineSet
298.27734375 233 m 17
 169.142578125 617 l 1
 17.142578125 617 l 1
 235.633789062 0 l 1
 375.81640625 0 l 21
 610.142578125 617 l 1
 456.403320312 617 l 1
 325.451171875 233 l 9
 298.27734375 233 l 17
375.142578125 0 m 1053
EndSplineSet
EndChar

StartChar: i
Encoding: 105 105 7
Width: 207
Flags: HW
LayerCount: 3
Fore
SplineSet
57.142578125 800 m 1
 207.142578125 800 l 1
 207.142578125 650 l 1
 57.142578125 650 l 1
 57.142578125 800 l 1
207.142578125 0 m 21
 57.142578125 0 l 5
 57.142578125 567 l 5
 207.142578125 567 l 5
 207.142578125 0 l 21
EndSplineSet
EndChar

StartChar: d
Encoding: 100 100 8
Width: 598
Flags: HW
LayerCount: 3
Fore
SplineSet
479.478515625 22.453125 m 1
 447.372070312 5.7109375 398.897460938 -22.896484375 353.833007812 -22.896484375 c 0
 198.932617188 -22.896484375 87.591796875 80.2568359375 87.591796875 286 c 0
 87.591796875 491.744140625 188.932617188 614.897460938 343.833007812 614.897460938 c 0
 384.791992188 614.897460938 435.934570312 596.37890625 466.943359375 580.223632812 c 5
 464.739257812 752.1171875 l 1
 480.739257812 772.1171875 l 1
 593.739257812 772.1171875 l 2
 598.739257812 -9.8828125 l 1
 484.739257812 -19.8828125 l 1
 479.478515625 22.453125 l 1
470.891601562 209.22265625 m 13
 468.497070312 405.9921875 l 5
 449.216796875 461.815429688 400.219726562 471.272460938 344.948242188 471.272460938 c 0
 261.75 471.272460938 222.500976562 391.112304688 222.500976562 286.057617188 c 0
 222.500976562 181.002929688 270.75 119.899414062 353.948242188 119.899414062 c 0
 413.713867188 119.899414062 453.125976562 150.256835938 470.891601562 209.22265625 c 13
EndSplineSet
EndChar

StartChar: a
Encoding: 97 97 9
Width: 573
Flags: HW
LayerCount: 3
Fore
SplineSet
432.049804688 36.453125 m 1
 399.943359375 19.7109375 351.46875 -8.896484375 306.404296875 -8.896484375 c 0
 151.50390625 -8.896484375 40.1630859375 94.2568359375 40.1630859375 300 c 0
 40.1630859375 505.744140625 141.50390625 640.897460938 296.404296875 640.897460938 c 0
 337.36328125 640.897460938 398.505859375 596.37890625 429.514648438 580.223632812 c 1
 427.310546875 598.1171875 l 1
 443.310546875 618.1171875 l 1
 571.310546875 611.1171875 l 2
 571.310546875 4.1171875 l 1
 437.310546875 -5.8828125 l 1
 432.049804688 36.453125 l 1
441.462890625 218.22265625 m 9
 439.068359375 418.9921875 l 1
 419.788085938 474.815429688 363.163085938 518 299.51953125 507.272460938 c 0
 198.579101562 490.2578125 170.072265625 405.112304688 170.072265625 300.057617188 c 0
 170.072265625 195.002929688 223.321289062 118.899414062 306.51953125 118.899414062 c 0
 366.28515625 118.899414062 423.697265625 159.256835938 441.462890625 218.22265625 c 9
EndSplineSet
EndChar

StartChar: e
Encoding: 101 101 10
Width: 577
Flags: HWO
HStem: 291.274 97.9336<203.468 445.14>
LayerCount: 3
Fore
SplineSet
540.078125 157.221679688 m 6
 551.640625 151.280273438 503.928710938 -3.01953125 328.422851562 -3 c 0
 173.522460938 -2.982421875 68.6327730468 115.849395202 74.671875 341.463867188 c 0
 79.62890625 526.653320312 174.640580122 631.320317874 329.047851562 630.99609375 c 0
 578.046772747 630.473246242 559.934570312 305.189453125 559.934570312 305.189453125 c 2
 542.310546875 285.532226562 l 1
 196.513671875 286.274414062 l 1
 183.258789062 222.279296875 231.918945312 113.467773438 324.438476562 113.138671875 c 0
 417.51171875 112.807617188 448.071289062 203.024414062 448.071289062 203.024414062 c 2
 540.078125 157.221679688 l 6
193.467773438 389.208007812 m 1
 445.139648438 386.96484375 l 1
 443.262695312 466.46484375 410.159179688 518.071289062 331.700195312 519.30859375 c 0
 240.258789062 520.75 205.112304688 474.619140625 193.467773438 389.208007812 c 1
EndSplineSet
EndChar

StartChar: s
Encoding: 115 115 11
Width: 544
Flags: HW
LayerCount: 3
Fore
SplineSet
187.8203125 430.772460938 m 0
 193.040039062 479.772460938 247.462890625 485.076171875 288.040039062 480.772460938 c 0
 354.040039062 473.772460938 377.040039062 427.772460938 400.137695312 376.280273438 c 1
 481.596679688 416.700195312 l 1
 472.040039062 475.772460938 427.040039062 582.772460938 274.040039062 582.772460938 c 0
 80.0400390625 582.772460938 73.5947265625 450.375976562 81.5087890625 394.634765625 c 0
 108.040039062 207.772460938 418.040039062 244.772460938 372.040039062 116.772460938 c 0
 347.158203125 47.5361328125 150 62 142.559570312 169.232421875 c 1
 50.1015625 121.252929688 l 1
 107.040039062 17.7724609375 154.520507812 -27.5869140625 270 -30 c 0
 431.237304688 -33.3701171875 502.12890625 47.0234375 492.661132812 156.66796875 c 0
 476.0390625 349.163085938 173.923828125 300.319335938 187.8203125 430.772460938 c 0
EndSplineSet
EndChar

StartChar: r
Encoding: 114 114 12
Width: 497
Flags: HW
LayerCount: 3
Fore
SplineSet
206.94140625 388.431640625 m 5
 182.036132812 504.14453125 l 5
 229.30078125 548.270507812 258.196289062 583 318.196289062 593 c 4
 460.606445312 616.735351562 471.010742188 542.598632812 501.904296875 436.494140625 c 5
 385.21484375 392.166015625 l 5
 369.677734375 440.048828125 312.015625 506.328125 206.94140625 388.431640625 c 5
224.196289062 0 m 5
 74.1962890625 0 l 5
 74.1962890625 607 l 5
 224.196289062 607 l 5
 224.196289062 0 l 5
EndSplineSet
EndChar

StartChar: f
Encoding: 102 102 13
Width: 402
Flags: HW
LayerCount: 3
Fore
SplineSet
87.7138671875 511 m 13
 404.713867188 511 l 5
 404.713867188 371 l 5
 87.7138671875 371 l 5
 87.7138671875 511 l 13
307.713867188 603 m 1
 307.713867188 0 l 1
 157.713867188 0 l 1
 157.713867188 659 l 1
 157.713867188 727 214.713867188 782 285.713867188 782 c 1
 402.713867188 762 l 1
 396.713867188 620 l 1
 334.713867188 630 l 1
 316.713867188 634 307.713867188 622 307.713867188 603 c 1
EndSplineSet
EndChar

StartChar: g
Encoding: 103 103 14
Width: 549
Flags: HW
LayerCount: 3
Fore
SplineSet
552.900390625 18.076171875 m 6
 553.19140625 -153.8828125 436.713867188 -206.59375 297.846679688 -206.104492188 c 0
 121.930664062 -205.484375 54.62890625 -71.82421875 66.19140625 -65.8828125 c 2
 158.198242188 -10.080078125 l 2
 158.198242188 -10.080078125 198.459960938 -77.943359375 281.831054688 -79.9658203125 c 0
 370.717773438 -82.1220703125 409.471679688 -53.236328125 420.93359375 21.1943359375 c 5
 423.54296875 88.8935546875 l 5
 392.534179688 72.73828125 336.391601562 54.2197265625 295.432617188 54.2197265625 c 4
 140.532226562 54.2197265625 59.19140625 167.373046875 59.19140625 333.1171875 c 4
 59.19140625 498.860351562 150.532226562 622.013671875 305.432617188 622.013671875 c 4
 350.497070312 622.013671875 398.971679688 593.40625 431.078125 576.6640625 c 5
 436.338867188 615 l 5
 550.338867188 599 l 5
 550.338867188 599 553.19140625 18.1171875 552.900390625 18.076171875 c 6
427.491210938 389.89453125 m 21
 419.725585938 428.860351562 365.313476562 489.217773438 305.547851562 489.217773438 c 4
 222.349609375 489.217773438 194.100585938 408.114257812 194.100585938 333.059570312 c 4
 194.100585938 258.004882812 213.349609375 187.844726562 296.547851562 187.844726562 c 4
 351.819335938 187.844726562 415.81640625 217.301757812 425.096679688 263.125 c 5
 427.491210938 389.89453125 l 21
EndSplineSet
EndChar

StartChar: c
Encoding: 99 99 15
Width: 531
Flags: HW
LayerCount: 3
Fore
SplineSet
515.125 462 m 5
 529.208007812 575.223632812 l 5
 498.19921875 591.37890625 429.056640625 625.897460938 358.09765625 625.897460938 c 4
 203.197265625 625.897460938 81.8564453125 500.744140625 81.8564453125 295 c 4
 81.8564453125 89.2568359375 213.197265625 -13.896484375 368.09765625 -13.896484375 c 4
 449.162109375 -13.896484375 498.63671875 14.7109375 530.743164062 31.453125 c 5
 519.856445312 143 l 5
 502.856445312 149 l 5
 478.466796875 104.102539062 421.825195312 112.010742188 368.212890625 113.899414062 c 4
 285.06640625 116.829101562 211.765625 190.002929688 211.765625 295.057617188 c 4
 211.765625 400.112304688 259.26171875 493.083984375 361.212890625 502.272460938 c 4
 426.600585938 508.166015625 477.416992188 498.640625 502.856445312 459.86328125 c 5
 515.125 462 l 5
EndSplineSet
EndChar

StartChar: l
Encoding: 108 108 16
Width: 383
Flags: HW
LayerCount: 3
Fore
SplineSet
249.5234375 169 m 1
 254.5234375 802 l 1
 104.5234375 802 l 1
 99.5234375 123 l 1
 99.5234375 55 156.5234375 0 227.5234375 0 c 1
 324.5234375 0 l 1
 314.5234375 152 l 1
 266.5234375 152 l 1
 257.5234375 152 249.5234375 160 249.5234375 169 c 1
EndSplineSet
EndChar

StartChar: u
Encoding: 117 117 17
Width: 559
Flags: HW
LayerCount: 3
Fore
SplineSet
312.493164062 127 m 0xc0
 283.493164062 128 216.271484375 145.288085938 214.493164062 215 c 2xc0
 219.493164062 607 l 1
 84.4931640625 605 l 1xa0
 75.4931640625 157 l 2
 74.921875 22.099609375 214.279296875 -26.3037109375 295.493164062 4 c 4
 362.493164062 29 400.493164062 51 455.493164062 85 c 5
 447.493164062 211 l 1
 409.493164062 203 352.481445312 125.62109375 312.493164062 127 c 0xc0
415.493164062 -20 m 1
 544.493164062 -10 l 1
 549.493164062 607 l 1
 409.493164062 607 l 1
 399.493164062 0 l 2
 415.493164062 -20 l 1
EndSplineSet
EndChar

StartChar: C
Encoding: 67 67 18
Width: 646
Flags: HW
LayerCount: 3
Fore
SplineSet
631.512695312 589.459960938 m 1
 649.540039062 731.510742188 l 1
 609.845703125 751.779296875 521.336914062 795.084960938 430.501953125 795.084960938 c 0
 232.213867188 795.084960938 76.8857421875 638.068359375 76.8857421875 379.94140625 c 0
 76.8857421875 121.81640625 245.014648438 -7.599609375 443.302734375 -7.599609375 c 0
 547.07421875 -7.599609375 610.405273438 28.291015625 651.505859375 49.2958984375 c 1
 637.569335938 189.2421875 l 1
 615.807617188 196.770507812 l 1
 584.586914062 140.44140625 512.079101562 150.36328125 443.450195312 152.733398438 c 0
 337.014648438 156.409179688 243.182617188 248.212890625 243.182617188 380.013671875 c 0
 243.182617188 511.815429688 303.982421875 628.458007812 434.489257812 639.985351562 c 0
 518.192382812 647.379882812 583.243164062 635.4296875 615.807617188 586.779296875 c 1
 631.512695312 589.459960938 l 1
EndSplineSet
EndChar

StartChar: b
Encoding: 98 98 19
Width: 663
Flags: HW
LayerCount: 3
Fore
SplineSet
282.827148438 12.453125 m 1
 314.93359375 -4.2890625 363.408203125 -32.896484375 408.47265625 -32.896484375 c 0
 563.373046875 -32.896484375 678.713867188 80.2568359375 678.713867188 286 c 0
 678.713867188 491.744140625 577.373046875 634.897460938 422.47265625 634.897460938 c 0
 381.513671875 634.897460938 330.37109375 616.37890625 299.362304688 600.223632812 c 5
 299.56640625 772.1171875 l 1
 283.56640625 792.1171875 l 1
 170.56640625 792.1171875 l 2
 163.56640625 -19.8828125 l 1
 277.56640625 -29.8828125 l 1
 282.827148438 12.453125 l 1
290.4140625 199.22265625 m 9
 297.80859375 425.9921875 l 5
 317.088867188 481.815429688 366.0859375 491.272460938 421.357421875 491.272460938 c 0
 504.555664062 491.272460938 543.8046875 391.112304688 543.8046875 286.057617188 c 0
 543.8046875 181.002929688 491.555664062 109.899414062 408.357421875 109.899414062 c 0
 348.591796875 109.899414062 308.1796875 140.256835938 290.4140625 199.22265625 c 9
EndSplineSet
EndChar

StartChar: k
Encoding: 107 107 20
Width: 648
Flags: HW
LayerCount: 3
Fore
SplineSet
255.478515625 429.310546875 m 5
 401.13671875 627.559570312 l 5
 564.875976562 627.559570312 l 29
 378.884765625 342.90625 l 5
 595.032226562 -8 l 5
 418.032226562 -8 l 5
 254.380859375 242.754882812 l 5
 253.380859375 -8 l 5
 104.380859375 -8 l 5
 104.380859375 793 l 13
 254.380859375 793 l 5
 255.478515625 429.310546875 l 5
EndSplineSet
EndChar

StartChar: m
Encoding: 109 109 21
Width: 1030
Flags: HW
LayerCount: 3
Fore
SplineSet
678.796875 480 m 0xc0
 707.796875 479 775.018554688 461.711914062 776.796875 392 c 2xc0
 786.796875 0 l 1
 941.796875 2 l 1xa0
 935.796875 450 l 2
 936.368164062 584.900390625 797.010742188 643.303710938 715.796875 613 c 0
 648.796875 588 610.796875 566 555.796875 532 c 1
 543.796875 396 l 1
 581.796875 404 638.80859375 481.37890625 678.796875 480 c 0xc0
348.796875 480 m 0xc0
 377.796875 479 445.018554688 461.711914062 446.796875 392 c 2xc0
 456.796875 0 l 1
 611.796875 2 l 1xa0
 605.796875 450 l 2
 606.368164062 584.900390625 467.010742188 643.303710938 385.796875 613 c 0
 318.796875 588 280.796875 566 225.796875 532 c 1
 213.796875 396 l 1
 251.796875 404 308.80859375 481.37890625 348.796875 480 c 0xc0
265.796875 627 m 1
 121.796875 617 l 1
 121.796875 0 l 1
 271.796875 0 l 1
 281.796875 607 l 2
 265.796875 627 l 1
EndSplineSet
EndChar

StartChar: p
Encoding: 112 112 22
Width: 594
Flags: HW
LayerCount: 3
Fore
SplineSet
220.3515625 595.546875 m 5
 252.458007812 612.2890625 294.932617188 640.896484375 339.997070312 640.896484375 c 4
 494.897460938 640.896484375 610.23828125 527.743164062 610.23828125 322 c 4
 610.23828125 116.255859375 508.897460938 -16.8974609375 353.997070312 -16.8974609375 c 4
 313.038085938 -16.8974609375 256.895507812 1.62109375 225.88671875 17.7763671875 c 5
 226.090820312 -164.1171875 l 5
 210.090820312 -184.1171875 l 5
 97.0908203125 -184.1171875 l 6
 101.090820312 627.8828125 l 5
 215.090820312 637.8828125 l 5
 220.3515625 595.546875 l 5
231.938476562 408.77734375 m 13
 224.333007812 192.0078125 l 5
 243.61328125 136.184570312 297.610351562 126.727539062 352.881835938 126.727539062 c 4
 436.080078125 126.727539062 475.329101562 216.887695312 475.329101562 321.942382812 c 4
 475.329101562 426.997070312 423.080078125 498.100585938 339.881835938 498.100585938 c 4
 280.116210938 498.100585938 249.704101562 467.743164062 231.938476562 408.77734375 c 13
EndSplineSet
EndChar

StartChar: q
Encoding: 113 113 23
Width: 585
Flags: HW
LayerCount: 3
Fore
SplineSet
456.600585938 589.546875 m 1
 424.494140625 606.2890625 386.01953125 634.896484375 340.955078125 634.896484375 c 0
 186.0546875 634.896484375 74.7138671875 521.743164062 74.7138671875 316 c 0
 74.7138671875 110.255859375 176.0546875 -12.8974609375 330.955078125 -12.8974609375 c 0
 371.9140625 -12.8974609375 428.056640625 5.62109375 459.065429688 21.7763671875 c 1
 456.861328125 -170.1171875 l 1
 472.861328125 -190.1171875 l 1
 585.861328125 -190.1171875 l 2
 575.861328125 621.8828125 l 1
 461.861328125 631.8828125 l 1
 456.600585938 589.546875 l 1
458.013671875 402.77734375 m 13
 460.619140625 196.0078125 l 1
 441.338867188 140.184570312 387.341796875 130.727539062 332.0703125 130.727539062 c 0
 248.872070312 130.727539062 209.623046875 210.887695312 209.623046875 315.942382812 c 0
 209.623046875 420.997070312 257.872070312 492.100585938 341.0703125 492.100585938 c 0
 400.8359375 492.100585938 440.248046875 461.743164062 458.013671875 402.77734375 c 13
EndSplineSet
EndChar

StartChar: j
Encoding: 106 106 24
Width: 381
Flags: HW
LayerCount: 3
Fore
SplineSet
4.4599609375 -179.145507812 m 5
 243.327148438 -178.634765625 246.904296875 -172 246.61328125 -0.041015625 c 5
 246.61328125 566.958984375 l 17
 96.61328125 566.958984375 l 1
 96.61328125 -0.041015625 l 5
 95.904296875 -44 71.3310546875 -34.1630859375 9.4443359375 -34.0068359375 c 5
 4.4599609375 -179.145507812 l 5
96.61328125 799.958984375 m 1
 246.61328125 799.958984375 l 1
 246.61328125 649.958984375 l 1
 96.61328125 649.958984375 l 1
 96.61328125 799.958984375 l 1
EndSplineSet
EndChar

StartChar: h
Encoding: 104 104 25
Width: 606
Flags: HW
LayerCount: 3
Fore
SplineSet
335.590820312 480 m 0xc0
 364.590820312 479 431.8125 461.711914062 433.590820312 392 c 2xc0
 443.590820312 0 l 1
 598.590820312 2 l 1xa0
 592.590820312 450 l 2
 593.162109375 584.900390625 453.8046875 643.303710938 372.590820312 613 c 0
 305.590820312 588 267.590820312 566 212.590820312 532 c 1
 200.590820312 396 l 1
 238.590820312 404 295.602539062 481.37890625 335.590820312 480 c 0xc0
217.590820312 797 m 1
 88.5908203125 787 l 1
 88.5908203125 0 l 1
 238.590820312 0 l 1
 233.590820312 777 l 2
 217.590820312 797 l 1
EndSplineSet
EndChar

StartChar: t
Encoding: 116 116 26
Width: 348
Flags: HW
LayerCount: 3
Fore
SplineSet
298 364 m 5
 300 499 l 5
 34 499 l 5
 34 364 l 5
 298 364 l 5
218.952148438 169 m 1
 218.952148438 602 l 1
 78.9521484375 602 l 1
 78.9521484375 123 l 1
 78.9521484375 55 125.952148438 0 196.952148438 0 c 1
 283.952148438 0 l 1
 287.952148438 152 l 1
 235.952148438 152 l 1
 226.952148438 152 218.952148438 160 218.952148438 169 c 1
EndSplineSet
EndChar

StartChar: w
Encoding: 119 119 27
Width: 1024
Flags: HW
LayerCount: 3
Fore
SplineSet
542 607 m 1
 562.591796875 510.3984375 584.250976562 414.193359375 610.134765625 313 c 5
 627.30859375 313 l 5
 728.260742188 617 l 1
 862 617 l 1
 687.673828125 -5 l 1
 577.491210938 -5 l 1
 497.890625 290.885742188 l 1
 397.673828125 0 l 1
 307.491210938 0 l 1
 129 617 l 1
 261 617 l 1
 370.134765625 303 l 1
 387.30859375 303 l 1
 438.260742188 607 l 1
 542 607 l 1
EndSplineSet
EndChar

StartChar: W
Encoding: 87 87 28
Width: 1184
Flags: HW
LayerCount: 3
Fore
SplineSet
477 10 m 1053
405.134765625 303 m 5
 291 792 l 5
 129 797 l 5
 317.491210938 10 l 5
 477.673828125 10 l 5
 606.890625 450.885742188 l 5
 747.491210938 5 l 5
 917.673828125 5 l 5
 1112 797 l 5
 948.260742188 792 l 5
 827.30859375 303 l 5
 820.134765625 303 l 5
 682 767 l 5
 538.260742188 767 l 5
 412.30859375 303 l 5
 405.134765625 303 l 5
EndSplineSet
EndChar

StartChar: y
Encoding: 121 121 29
Width: 663
Flags: HW
LayerCount: 3
Fore
SplineSet
544.528320312 607.559570312 m 9
 390.7890625 607.559570312 l 1
 312.552734375 389.310546875 l 1
 235.708984375 607 l 25
 63.7314453125 607.559570312 l 1
 235.072265625 208.1796875 l 1
 153.481445312 -40 l 1
 326.861328125 -40 l 1
 544.528320312 607.559570312 l 9
EndSplineSet
EndChar

StartChar: z
Encoding: 122 122 30
Width: 529
Flags: HW
LayerCount: 3
Fore
SplineSet
42.4931640625 0 m 1
 42.4921875 0 486 3 486 3 c 1
 486 153 l 1
 239 150 l 5
 465 455 l 1
 468.764648438 605.559570312 l 1
 47.953125 602.559570312 l 1
 47.953125 452.559570312 l 1
 268.045898438 455.559570312 l 1
 45 150 l 1
 42.4931640625 0 l 1
486 153 m 1025
EndSplineSet
EndChar

StartChar: V
Encoding: 86 86 31
Width: 808
Flags: HW
LayerCount: 3
Fore
SplineSet
472 8 m 5
 328.260742188 8 l 5
 39 797 l 5
 211 792 l 5
 402.134765625 243 l 5
 412.30859375 243 l 5
 596.260742188 791 l 5
 770 796 l 5
 472 8 l 5
EndSplineSet
EndChar

StartChar: B
Encoding: 66 66 32
Width: 716
Flags: HW
LayerCount: 3
Fore
SplineSet
223 328 m 13
 223 126 l 5
 223 126 315.791015625 126 316 126 c 4
 416.625 126 491.146484375 126.743164062 491.146484375 229.349609375 c 4
 491.146484375 324.955078125 373 328 312 328 c 4
 309 328 223 328 223 328 c 13
353 789 m 5
 545 783 612.076171875 717.3046875 611.610351562 561.159179688 c 4
 611.416015625 495.973632812 534.764648438 428.668945312 470.526367188 404.633789062 c 5
 607.25390625 392.71484375 649.310546875 297.970703125 649.310546875 220.859375 c 4
 649.310546875 160.712890625 631.939453125 0 370 0 c 6
 88 5 l 5
 88 784 l 5
 353 789 l 5
220.541992188 655.022460938 m 5
 223.09375 475.807617188 l 5
 235 476 229.865234375 476.206054688 350.07421875 476.206054688 c 4
 396.106445312 476.206054688 453.5546875 505.42578125 453.5546875 571.032226562 c 4
 453.5546875 626.638671875 382.25390625 654.689453125 336.221679688 654.689453125 c 4
 251.223632812 654.689453125 220.541992188 655.022460938 220.541992188 655.022460938 c 5
EndSplineSet
EndChar

StartChar: D
Encoding: 68 68 33
Width: 716
Flags: HW
LayerCount: 3
Fore
SplineSet
353 789 m 5
 595 783 659 636 659 398 c 4
 659 226.247070312 624 25 370 0 c 5
 88 5 l 5
 88 784 l 5
 353 789 l 5
220.541992188 655.022460938 m 5
 223.09375 135.807617188 l 5
 498.611060223 136.128393936 523.5546875 200.662109375 523.5546875 411.032226562 c 4
 523.5546875 643.734375 420.0586656 653.725448378 220.541992188 655.022460938 c 5
EndSplineSet
EndChar

StartChar: E
Encoding: 69 69 34
Width: 716
Flags: HW
LayerCount: 3
Fore
SplineSet
522 329 m 5
 519 329 223 328 223 328 c 5
 223 126 l 5
 540 124 l 5
 540 0 l 5
 88 0 l 5
 88 784 l 5
 539 784 l 5
 539.221679688 647.689453125 l 5
 454.223632812 647.689453125 223 648 223 648 c 5
 223 468 l 5
 234.90625 468.192382812 401.865234375 466.206054688 522.07421875 466.206054688 c 5
 522 329 l 5
EndSplineSet
EndChar

StartChar: F
Encoding: 70 70 35
Width: 716
Flags: HW
LayerCount: 3
Fore
SplineSet
223 20 m 5
 88 20 l 5
 88 784 l 5
 539 784 l 5
 539.221679688 647.689453125 l 5
 454.223632812 647.689453125 223 648 223 648 c 5
 223 468 l 5
 234.90625 468.192382812 391.865234375 466.206054688 512.07421875 466.206054688 c 5
 512 329 l 5
 509 329 223 328 223 328 c 5
 223 20 l 5
EndSplineSet
EndChar

StartChar: G
Encoding: 71 71 36
Width: 888
Flags: HW
LayerCount: 3
Fore
SplineSet
614.756835938 296.979492188 m 1
 500.756835938 296.979492188 l 1
 500.756835938 411.979492188 l 1
 745.756835938 413.979492188 l 17
 754 246 739.400390625 -17.0205078125 423.756835938 -17.0205078125 c 0
 189.756835938 -17.0205078125 104.756835938 189.2265625 104.756835938 400.979492188 c 0
 104.756835938 688.979492188 248.756835938 795.979492188 430.756835938 801.979492188 c 1
 642.958984375 794.514648438 733.421875 655.311523438 735.756835938 517.979492188 c 1
 601.936523438 522.979492188 l 1
 591.106445312 606.633789062 527.020242746 671.021789679 431.756835938 670.615234375 c 0
 329.756251016 670.17992684 250.008789062 552.65234375 250.202148438 404.01171875 c 0
 250.409179688 245.143554688 318.827303148 116.516335624 431.756835938 116.916015625 c 0
 534.716598134 117.280410631 613.048828125 188.26953125 614.756835938 296.979492188 c 1
EndSplineSet
EndChar

StartChar: H
Encoding: 72 72 37
Width: 736
Flags: HW
LayerCount: 3
Fore
SplineSet
512 326 m 5
 512 18 l 5
 647 18 l 5
 647 782 l 5
 512 782 l 5
 512 466 l 5
 223 468 l 5
 223 784 l 5
 88 784 l 5
 88 20 l 5
 223 20 l 5
 223 328 l 5
 512 326 l 5
EndSplineSet
EndChar

StartChar: I
Encoding: 73 73 38
Width: 736
Flags: HW
LayerCount: 3
Fore
SplineSet
293 649 m 1
 185 649 l 1
 185 784 l 1
 551 784 l 1
 549 649 l 1
 433 649 l 1
 435 153 l 1
 551 153 l 5
 551 18 l 5
 187 18 l 5
 187 153 l 5
 295 153 l 1
 293 649 l 1
EndSplineSet
EndChar

StartChar: J
Encoding: 74 74 39
Width: 666
Flags: HW
LayerCount: 3
Fore
SplineSet
433 782 m 5
 205 784 l 5
 205 649 l 5
 293 649 l 5
 293 649 301.831054688 147.034179688 298 149 c 5
 297.291015625 105.041015625 225.88671875 124.84375 164 131 c 5
 159 0 l 5
 407.8671875 -21.4892578125 441.459960938 -16.9931640625 441.168945312 154.965820312 c 5
 438 159 433 782 433 782 c 5
EndSplineSet
EndChar

StartChar: Y
Encoding: 89 89 40
Width: 767
Flags: HW
LayerCount: 3
Fore
SplineSet
294.552734375 0.166015625 m 1
 469.001953125 0.166015625 l 1
 470 328 l 29
 716.801757812 787.73046875 l 1
 534.092773438 787.73046875 l 1
 387 504 l 29
 233.178710938 788.170898438 l 1
 49.923828125 788.170898438 l 1
 295 334 l 5
 294.552734375 0.166015625 l 1
EndSplineSet
EndChar

StartChar: Z
Encoding: 90 90 41
Width: 683
Flags: HW
LayerCount: 3
Fore
SplineSet
48 0.1455078125 m 1
 664 0 l 1
 663 135 l 1
 228 137 l 1
 626 652 l 1
 626 787.767578125 l 1
 64 788 l 1
 64 653 l 1
 451 652 l 1
 48 137 l 1
 48 0.1455078125 l 1
48 141.795898438 m 1025
EndSplineSet
Layer: 2
SplineSet
674 0 m 5
 673 135 l 5
 231 137 l 5
 622.801757812 787.73046875 l 5
 440.092773438 787.73046875 l 5
 -16 788 l 5
 -16 653 l 5
 358 652 l 5
 -38.0546875 0.166015625 l 5
 674 0 l 5
EndSplineSet
EndChar

StartChar: slash
Encoding: 47 47 42
Width: 591
Flags: HW
LayerCount: 3
Fore
SplineSet
376.092773438 787.73046875 m 21
 558.801757812 787.73046875 l 5
 213.655273438 0.166015625 l 5
 27.9453125 0.166015625 l 5
 376.092773438 787.73046875 l 21
EndSplineSet
EndChar

StartChar: period
Encoding: 46 46 43
Width: 290
Flags: HW
LayerCount: 3
Fore
SplineSet
62 -13 m 5
 62 154 l 5
 228 154 l 5
 228 -13 l 5
 62 -13 l 5
EndSplineSet
EndChar

StartChar: U
Encoding: 85 85 44
Width: 965
Flags: HW
LayerCount: 3
Fore
SplineSet
459.549804688 5.419921875 m 0
 785.041015625 5.419921875 769 251 765.967773438 791.912109375 c 1
 606.350585938 791.912109375 l 1
 604.508789062 366.701171875 627.299804688 152.364257812 462.428710938 152.364257812 c 4
 284.974609375 152.364257812 308.264648438 370.833984375 306.970703125 791.912109375 c 1
 149.71484375 791.912109375 l 1
 150.23046875 237.907226562 133.123046875 5.419921875 459.549804688 5.419921875 c 0
EndSplineSet
EndChar

StartChar: Q
Encoding: 81 81 45
Width: 696
Flags: HW
LayerCount: 3
Fore
SplineSet
614.092773438 -19.73046875 m 13
 388.9453125 187.833984375 l 1
 494.655273438 307.833984375 l 1
 716.801757812 110.26953125 l 5
 614.092773438 -19.73046875 l 13
144.145507812 392.466796875 m 0
 144.145507812 226.54296875 229.961914062 106.943359375 350.9765625 106.943359375 c 0
 478.515625 106.943359375 556.073242188 227.60546875 556.073242188 393.528320312 c 0
 556.073242188 552.501953125 471.991210938 676.680664062 350.9765625 676.680664062 c 0
 229.961914062 676.680664062 144.145507812 568.390625 144.145507812 392.466796875 c 0
0.4677734375 392.818359375 m 0
 0.4677734375 662.424804688 146.369140625 810.701171875 349.349609375 810.701171875 c 0
 552.33203125 810.701171875 694.990234375 651.543945312 694.990234375 394.779296875 c 0
 694.990234375 125.173828125 564.51953125 -25.0634765625 349.349609375 -25.0634765625 c 0
 146.369140625 -25.0634765625 0.4677734375 123.2109375 0.4677734375 392.818359375 c 0
EndSplineSet
EndChar

StartChar: P
Encoding: 80 80 46
Width: 716
Flags: HW
LayerCount: 3
Fore
SplineSet
400.526367188 329.366210938 m 5
 627.25390625 330.28515625 649.310546875 486.029296875 649.310546875 563.140625 c 4
 649.310546875 623.287109375 631.939453125 784 370 784 c 6
 88 779 l 5
 88 0 l 5
 220 0 l 5
 223.09375 329.192382812 l 5
 400.526367188 329.366210938 l 5
219 456 m 13
 219 658 l 5
 219 658 355.791015625 658 356 658 c 4
 456.625 658 521.146484375 657.256835938 521.146484375 554.650390625 c 4
 521.146484375 459.044921875 413 456 352 456 c 4
 349 456 219 456 219 456 c 13
EndSplineSet
EndChar

StartChar: R
Encoding: 82 82 47
Width: 716
Flags: HW
LayerCount: 3
Fore
SplineSet
344 345 m 5
 495 1 l 1
 654 1 l 1
 486 356 l 1
 554 356 641.274382149 420.859435688 641.610351562 536.159179688 c 0
 642.036201308 682.304527126 595 783 353 784 c 1
 88 779 l 1
 88 0 l 1
 223 0 l 1
 223 345 l 1
 344 345 l 5
220 459 m 9
 220 661 l 1
 220 661 346.791015625 661 347 661 c 0
 447.625 661 502.146484375 660.256835938 502.146484375 557.650390625 c 0
 502.146484375 462.044921875 404 459 343 459 c 0
 340 459 220 459 220 459 c 9
EndSplineSet
EndChar

StartChar: T
Encoding: 84 84 48
Width: 736
Flags: HW
LayerCount: 3
Fore
SplineSet
293 649 m 1
 55 649 l 1
 55 784 l 1
 681 784 l 1
 679 649 l 1
 433 649 l 1
 435 18 l 1
 295 18 l 1
 293 649 l 1
EndSplineSet
EndChar

StartChar: N
Encoding: 78 78 49
Width: 736
Flags: HW
LayerCount: 3
Fore
SplineSet
512 23 m 5
 650 23 l 5
 650 782 l 5
 512 782 l 5
 512 296 l 5
 223 784 l 5
 88 784 l 5
 88 20 l 5
 223 20 l 5
 223 498 l 5
 512 23 l 5
EndSplineSet
EndChar

StartChar: M
Encoding: 77 77 50
Width: 881
Flags: HW
LayerCount: 3
Fore
SplineSet
488 323 m 1
 657 578 l 1
 657 20 l 1
 792 20 l 1
 792 784 l 1
 657 784 l 1
 438 486 l 1
 223 784 l 1
 88 784 l 1
 88 20 l 1
 223 20 l 1
 223 578 l 1
 392 323 l 1
 488 323 l 1
EndSplineSet
EndChar

StartChar: L
Encoding: 76 76 51
Width: 643
Flags: HW
LayerCount: 3
Fore
SplineSet
128 784 m 1
 270 784 l 1
 270 153 l 1
 546 153 l 1
 546 18 l 1
 130 18 l 1
 128 784 l 1
EndSplineSet
EndChar

StartChar: K
Encoding: 75 75 52
Width: 626
Flags: HW
LayerCount: 3
Fore
SplineSet
195.478515625 499.310546875 m 1
 391.13671875 787.559570312 l 1
 574.875976562 787.559570312 l 25
 318.884765625 412.90625 l 1
 625.032226562 -8 l 1
 408.032226562 -8 l 1
 194.380859375 312.754882812 l 1
 193.380859375 -8 l 1
 44.380859375 -8 l 1
 44.380859375 793 l 9
 194.380859375 793 l 1
 195.478515625 499.310546875 l 1
EndSplineSet
EndChar

StartChar: underscore
Encoding: 95 95 53
Width: 472
Flags: HW
LayerCount: 3
Fore
SplineSet
0 -69 m 5
 472 -69 l 5
 472 -200 l 5
 0 -200 l 5
 0 -69 l 5
EndSplineSet
EndChar

StartChar: grave
Encoding: 96 96 54
Width: 322
Flags: HW
LayerCount: 3
Fore
SplineSet
42 764 m 1
 151 862 l 1
 290 693 l 1
 190 603 l 5
 42 764 l 1
EndSplineSet
EndChar

StartChar: zero
Encoding: 48 48 55
Width: 696
Flags: HW
LayerCount: 3
Fore
SplineSet
204.145507812 402.466796875 m 4
 204.145507812 236.54296875 229.961914062 126.943359375 350.9765625 126.943359375 c 0
 478.515625 126.943359375 496.073242188 237.60546875 496.073242188 403.528320312 c 4
 496.073242188 562.501953125 471.991210938 676.680664062 350.9765625 676.680664062 c 0
 229.961914062 676.680664062 204.145507812 578.390625 204.145507812 402.466796875 c 4
60.4677734375 402.818359375 m 4
 60.4677734375 672.424804688 146.369140625 810.701171875 349.349609375 810.701171875 c 0
 552.33203125 810.701171875 634.990234375 661.543945312 634.990234375 404.779296875 c 4
 634.990234375 135.173828125 564.51953125 -5.0634765625 349.349609375 -5.0634765625 c 0
 146.369140625 -5.0634765625 60.4677734375 133.2109375 60.4677734375 402.818359375 c 4
EndSplineSet
EndChar

StartChar: eight
Encoding: 56 56 56
Width: 704
Flags: HW
LayerCount: 3
Fore
SplineSet
213.795898438 237.530273438 m 0
 213.795898438 171.606445312 269.612304688 112.006835938 360.626953125 112.006835938 c 0
 458.166015625 112.006835938 505.723632812 172.668945312 505.723632812 238.591796875 c 0
 505.723632812 307.565429688 451.641601562 361.744140625 360.626953125 361.744140625 c 0
 269.612304688 361.744140625 213.795898438 313.454101562 213.795898438 237.530273438 c 0
111.745117188 569.625976562 m 0
 111.745117188 729.232421875 237.646484375 777.508789062 360.626953125 777.508789062 c 4
 483.609375 777.508789062 606.267578125 718.3515625 606.267578125 571.586914062 c 0
 606.267578125 485.3984375 561.374023438 428.0078125 521.5234375 411.04296875 c 1
 575.702148438 384.237304688 634.640625 326.329101562 634.640625 239.842773438 c 0
 634.640625 50.2373046875 494.169921875 0 359 0 c 0
 236.01953125 0 80.1181640625 48.2744140625 80.1181640625 237.881835938 c 0
 80.1181640625 331.140625 140.25390625 389.885742188 195.67578125 415.670898438 c 1
 157.038085938 432.333007812 111.745117188 487.827148438 111.745117188 569.625976562 c 0
361 475 m 24
 423 475 477.350585938 512.44140625 477.350585938 580.3359375 c 0
 477.350585938 629.309570312 413.268554688 673.48828125 362.25390625 673.48828125 c 0
 311.239257812 673.48828125 245.422851562 635.198242188 245.422851562 579.274414062 c 0
 245.422851562 513.030273438 301 475 361 475 c 24
EndSplineSet
EndChar

StartChar: backslash
Encoding: 92 92 57
Width: 591
Flags: HW
LayerCount: 3
Fore
SplineSet
384.291015625 0 m 17
 567 0 l 1
 221.853515625 787.564453125 l 1
 36.1435546875 787.564453125 l 1
 384.291015625 0 l 17
EndSplineSet
EndChar

StartChar: one
Encoding: 49 49 58
Width: 736
Flags: HW
LayerCount: 3
Fore
SplineSet
295 133 m 5
 293 617 l 1
 185 617 l 1
 185 699 l 1
 232 699 270 737 270 784 c 1
 435 784 l 1
 435 133 l 5
 539 133 l 5
 539 -2 l 5
 175 -2 l 5
 175 133 l 5
 295 133 l 5
EndSplineSet
EndChar
